# Blender v2.77 (sub 0) OBJ File: ''
# www.blender.org
o Cube
v 8.714286 -8.714286 -8.714285
v 8.714286 -8.714286 11.285714
v -11.285716 -8.714286 11.285711
v -11.285710 -8.714286 -8.714290
v 8.714291 11.285714 -8.714280
v 8.714280 11.285714 11.285720
v -11.285713 11.285714 -8.714286
vt 0.5000 1.0000
vt 0.0000 0.5000
vt 0.5000 0.5000
vt 0.5000 0.0000
vt 0.0000 0.5000
vt 0.0000 0.0000
vt 0.5000 0.0000
vt 1.0000 0.5000
vt 0.5000 0.5000
vt 0.0000 1.0000
vt 0.5000 0.5000
vt 1.0000 0.0000
vn 0.0000 1.0000 0.0000
vn -1.0000 0.0000 0.0000
vn -0.0000 -0.0000 1.0000
s off
f 4/1/1 2/2/1 1/3/1
f 2/4/2 5/5/2 1/6/2
f 7/7/3 1/8/3 5/9/3
f 4/1/1 3/10/1 2/2/1
f 2/4/2 6/11/2 5/5/2
f 7/7/3 4/12/3 1/8/3
